<svg width="202" height="42" viewBox="0 0 202 42" fill="none" xmlns="http://www.w3.org/2000/svg">
<path d="M20.9999 7.35083L1.84448 14.5343L20.9999 24.112L30.1234 19.5503L21.5645 16.9335C21.3883 17.018 21.1954 17.0621 20.9999 17.0625C20.6518 17.0625 20.318 16.9242 20.0718 16.6781C19.8257 16.4319 19.6874 16.0981 19.6874 15.75C19.6874 15.4019 19.8257 15.0681 20.0718 14.8219C20.318 14.5758 20.6518 14.4375 20.9999 14.4375L20.7829 15.1431L22.3035 15.611L22.3041 15.6156L24.548 16.3018L37.3241 20.2326V21.229C37.1474 21.3492 37.0028 21.5107 36.9027 21.6996C36.8026 21.8884 36.7502 22.0989 36.7499 22.3126C36.7502 22.5312 36.805 22.7463 36.9095 22.9384C37.014 23.1304 37.1648 23.2933 37.3482 23.4123C36.7507 25.6702 36.7499 30.7931 36.7499 32.8125C38.0624 33.6652 38.0624 33.6964 39.3749 32.8125C39.3749 30.7934 39.3743 25.6714 38.7769 23.413C38.9604 23.294 39.1112 23.1309 39.2157 22.9387C39.3201 22.7465 39.3749 22.5313 39.3749 22.3125C39.3749 22.0985 39.3226 21.8878 39.2225 21.6987C39.1224 21.5096 38.9776 21.3478 38.8007 21.2275V19.1422L33.9343 17.6449L40.1554 14.5343L20.9999 7.35083ZM9.81275 20.4258L8.73626 26.8849C10.8834 27.1657 13.4519 28.4137 15.8131 29.8895C17.1559 30.7288 18.4137 31.6501 19.4353 32.544C20.0597 33.0903 20.5818 33.6145 20.9999 34.1303C21.418 33.6144 21.9402 33.0903 22.5646 32.544C23.5861 31.6501 24.8438 30.7288 26.1868 29.8895C28.548 28.4137 31.1164 27.1657 33.2636 26.8849L32.1869 20.4258H31.6742L20.9999 25.763L10.3254 20.4258H9.81275Z" fill="#FF6B6B"/>
<path d="M53.7216 29.5V12.0455H65.0739V14.696H56.8835V19.4347H64.4858V22.0852H56.8835V26.8494H65.142V29.5H53.7216ZM74.2145 29.5H68.2997V12.0455H74.3338C76.0668 12.0455 77.5554 12.3949 78.7997 13.0938C80.0497 13.7869 81.0099 14.7841 81.6804 16.0852C82.3509 17.3864 82.6861 18.9432 82.6861 20.7557C82.6861 22.5739 82.348 24.1364 81.6719 25.4432C81.0014 26.75 80.0327 27.7528 78.7656 28.4517C77.5043 29.1506 75.9872 29.5 74.2145 29.5ZM71.4616 26.7642H74.0611C75.277 26.7642 76.2912 26.5426 77.1037 26.0994C77.9162 25.6506 78.527 24.983 78.9361 24.0966C79.3452 23.2045 79.5497 22.0909 79.5497 20.7557C79.5497 19.4205 79.3452 18.3125 78.9361 17.4318C78.527 16.5455 77.9219 15.8835 77.1207 15.446C76.3253 15.0028 75.3366 14.7812 74.1548 14.7812H71.4616V26.7642ZM96.6932 12.0455H99.8551V23.4489C99.8551 24.6989 99.5597 25.7983 98.9688 26.7472C98.3835 27.696 97.5597 28.4375 96.4972 28.9716C95.4347 29.5 94.1932 29.7642 92.7727 29.7642C91.3466 29.7642 90.1023 29.5 89.0398 28.9716C87.9773 28.4375 87.1534 27.696 86.5682 26.7472C85.983 25.7983 85.6903 24.6989 85.6903 23.4489V12.0455H88.8523V23.1847C88.8523 23.9119 89.0114 24.5597 89.3295 25.1278C89.6534 25.696 90.108 26.142 90.6932 26.4659C91.2784 26.7841 91.9716 26.9432 92.7727 26.9432C93.5739 26.9432 94.267 26.7841 94.8523 26.4659C95.4432 26.142 95.8977 25.696 96.2159 25.1278C96.5341 24.5597 96.6932 23.9119 96.6932 23.1847V12.0455ZM106.241 21.8295V29.5H103.156V16.4091H106.104V18.6335H106.258C106.559 17.9006 107.039 17.3182 107.698 16.8864C108.363 16.4545 109.184 16.2386 110.161 16.2386C111.065 16.2386 111.852 16.4318 112.522 16.8182C113.198 17.2045 113.721 17.7642 114.09 18.4972C114.465 19.2301 114.65 20.1193 114.644 21.1648V29.5H111.559V21.642C111.559 20.767 111.332 20.0824 110.877 19.5881C110.428 19.0937 109.806 18.8466 109.011 18.8466C108.471 18.8466 107.991 18.9659 107.57 19.2045C107.156 19.4375 106.829 19.7756 106.59 20.2188C106.357 20.6619 106.241 21.1989 106.241 21.8295ZM117.781 29.5V16.4091H120.866V29.5H117.781ZM119.332 14.5511C118.843 14.5511 118.423 14.3892 118.07 14.0653C117.718 13.7358 117.542 13.3409 117.542 12.8807C117.542 12.4148 117.718 12.0199 118.07 11.696C118.423 11.3665 118.843 11.2017 119.332 11.2017C119.826 11.2017 120.246 11.3665 120.593 11.696C120.945 12.0199 121.121 12.4148 121.121 12.8807C121.121 13.3409 120.945 13.7358 120.593 14.0653C120.246 14.3892 119.826 14.5511 119.332 14.5511ZM135.732 16.4091L131.07 29.5H127.661L122.999 16.4091H126.288L129.297 26.1335H129.433L132.45 16.4091H135.732ZM143.217 29.7557C141.904 29.7557 140.771 29.483 139.816 28.9375C138.867 28.3864 138.137 27.608 137.626 26.6023C137.114 25.5909 136.859 24.4006 136.859 23.0312C136.859 21.6847 137.114 20.5028 137.626 19.4858C138.143 18.4631 138.864 17.6676 139.79 17.0994C140.717 16.5256 141.805 16.2386 143.055 16.2386C143.862 16.2386 144.623 16.3693 145.339 16.6307C146.06 16.8864 146.697 17.2841 147.248 17.8239C147.805 18.3636 148.242 19.0511 148.56 19.8864C148.879 20.7159 149.038 21.7045 149.038 22.8523V23.7983H138.308V21.7188H146.08C146.075 21.1278 145.947 20.6023 145.697 20.142C145.447 19.6761 145.097 19.3097 144.648 19.0426C144.205 18.7756 143.688 18.642 143.097 18.642C142.467 18.642 141.913 18.7955 141.435 19.1023C140.958 19.4034 140.586 19.8011 140.319 20.2955C140.058 20.7841 139.924 21.321 139.918 21.9062V23.7216C139.918 24.483 140.058 25.1364 140.336 25.6818C140.614 26.2216 141.004 26.6364 141.504 26.9261C142.004 27.2102 142.589 27.3523 143.259 27.3523C143.708 27.3523 144.114 27.2898 144.478 27.1648C144.842 27.0341 145.157 26.8438 145.424 26.5938C145.691 26.3438 145.893 26.0341 146.029 25.6648L148.91 25.9886C148.728 26.75 148.381 27.4148 147.87 27.983C147.364 28.5455 146.717 28.983 145.927 29.2955C145.137 29.6023 144.234 29.7557 143.217 29.7557ZM151.648 29.5V16.4091H154.639V18.5909H154.776C155.014 17.8352 155.423 17.2528 156.003 16.8438C156.588 16.429 157.256 16.2216 158.006 16.2216C158.176 16.2216 158.366 16.2301 158.577 16.2472C158.793 16.2585 158.972 16.2784 159.114 16.3068V19.1449C158.983 19.0994 158.776 19.0597 158.491 19.0256C158.213 18.9858 157.943 18.9659 157.682 18.9659C157.119 18.9659 156.614 19.0881 156.165 19.3324C155.722 19.571 155.372 19.9034 155.116 20.3295C154.861 20.7557 154.733 21.2472 154.733 21.804V29.5H151.648ZM171.51 19.8693L168.697 20.1761C168.618 19.892 168.479 19.625 168.28 19.375C168.087 19.125 167.825 18.9233 167.496 18.7699C167.166 18.6165 166.763 18.5398 166.286 18.5398C165.643 18.5398 165.104 18.679 164.666 18.9574C164.234 19.2358 164.021 19.5966 164.027 20.0398C164.021 20.4205 164.161 20.7301 164.445 20.9688C164.734 21.2074 165.212 21.4034 165.876 21.5568L168.109 22.0341C169.348 22.3011 170.268 22.7244 170.871 23.304C171.479 23.8835 171.786 24.642 171.791 25.5795C171.786 26.4034 171.544 27.1307 171.067 27.7614C170.595 28.3864 169.939 28.875 169.098 29.2273C168.257 29.5795 167.291 29.7557 166.2 29.7557C164.598 29.7557 163.308 29.4205 162.331 28.75C161.354 28.0739 160.771 27.1335 160.584 25.929L163.592 25.6392C163.729 26.2301 164.018 26.6761 164.462 26.9773C164.905 27.2784 165.482 27.429 166.192 27.429C166.925 27.429 167.513 27.2784 167.956 26.9773C168.405 26.6761 168.629 26.304 168.629 25.8608C168.629 25.4858 168.484 25.1761 168.195 24.9318C167.911 24.6875 167.467 24.5 166.865 24.3693L164.632 23.9006C163.376 23.6392 162.447 23.1989 161.845 22.5795C161.243 21.9545 160.945 21.1648 160.95 20.2102C160.945 19.4034 161.163 18.7045 161.607 18.1136C162.055 17.517 162.678 17.0568 163.473 16.733C164.274 16.4034 165.197 16.2386 166.243 16.2386C167.777 16.2386 168.984 16.5653 169.865 17.2188C170.751 17.8722 171.3 18.7557 171.51 19.8693ZM174.335 29.5V16.4091H177.42V29.5H174.335ZM175.886 14.5511C175.398 14.5511 174.977 14.3892 174.625 14.0653C174.273 13.7358 174.097 13.3409 174.097 12.8807C174.097 12.4148 174.273 12.0199 174.625 11.696C174.977 11.3665 175.398 11.2017 175.886 11.2017C176.381 11.2017 176.801 11.3665 177.148 11.696C177.5 12.0199 177.676 12.4148 177.676 12.8807C177.676 13.3409 177.5 13.7358 177.148 14.0653C176.801 14.3892 176.381 14.5511 175.886 14.5511ZM187.13 16.4091V18.7955H179.604V16.4091H187.13ZM181.462 13.2727H184.548V25.5625C184.548 25.9773 184.61 26.2955 184.735 26.517C184.866 26.733 185.036 26.8807 185.246 26.9602C185.457 27.0398 185.69 27.0795 185.945 27.0795C186.138 27.0795 186.315 27.0653 186.474 27.0369C186.638 27.0085 186.763 26.983 186.849 26.9602L187.369 29.3722C187.204 29.429 186.968 29.4915 186.661 29.5597C186.36 29.6278 185.991 29.6676 185.553 29.679C184.781 29.7017 184.085 29.5852 183.465 29.3295C182.846 29.0682 182.354 28.6648 181.991 28.1193C181.633 27.5739 181.457 26.892 181.462 26.0739V13.2727ZM191.628 34.4091C191.207 34.4091 190.818 34.375 190.46 34.3068C190.108 34.2443 189.827 34.1705 189.616 34.0852L190.332 31.6818C190.781 31.8125 191.182 31.875 191.534 31.8693C191.886 31.8636 192.196 31.7528 192.463 31.5369C192.736 31.3267 192.966 30.9744 193.153 30.4801L193.418 29.7727L188.67 16.4091H191.943L194.96 26.2955H195.097L198.122 16.4091H201.403L196.162 31.0852C195.918 31.7784 195.594 32.3722 195.19 32.8665C194.787 33.3665 194.293 33.7472 193.707 34.0085C193.128 34.2756 192.435 34.4091 191.628 34.4091Z" fill="white"/>
</svg>
